<svg width="24" height="24" viewBox="0 0 24 24" xmlns="http://www.w3.org/2000/svg">
	<path style="fill:#d4d4d4" d="m22 19c0 .55-.45 1-1 1h-1v1c0 .55-.45 1-1 1s-1-.45-1-1v-1h-1c-.55 0-1-.45-1-1s.45-1 1-1h1v-1c0-.55.45-1 1-1s1 .45 1 1v1h1c.55 0 1 .45 1 1zm-6.03-5.82-4.46 2.68c-.15.09-.33.14-.51.14-.19 0-.39-.06-.55-.17l-2.63-1.75-5.82 1.59v1.33c0 1.65 1.35 3 3 3h8c.55 0 1-.45 1-1 0-2.25 1.48-4.15 3.52-4.78zm-8.23-1.14-5.74 1.56v-8.6c0-1.65 1.35-3 3-3h12c1.65 0 3 1.35 3 3v8c0 .14-.03.28-.09.4l-3.36-2.23c-.32-.22-.73-.23-1.06-.03l-4.46 2.68-2.48-1.65c-.24-.16-.53-.21-.81-.13zm-.24-3.04c.83 0 1.5-.67 1.5-1.5s-.67-1.5-1.5-1.5-1.5.67-1.5 1.5.67 1.5 1.5 1.5z"/>
</svg>